<svg width="76" height="76" viewBox="0 0 76 76" fill="none" xmlns="http://www.w3.org/2000/svg">
<g filter="url(#filter0_d_1_89)">
<circle cx="34" cy="34" r="30" fill="#377E94"/>
</g>
<path d="M31.8182 45.3409C30.0303 45.3409 28.4924 44.9621 27.2045 44.2045C25.9242 43.4394 24.9394 42.3788 24.25 41.0227C23.5682 39.6667 23.2273 38.1061 23.2273 36.3409C23.2273 34.553 23.572 32.9848 24.2614 31.6364C24.9583 30.2803 25.947 29.2235 27.2273 28.4659C28.5076 27.7008 30.0303 27.3182 31.7955 27.3182C33.3182 27.3182 34.6515 27.5947 35.7955 28.1477C36.9394 28.7008 37.8447 29.4773 38.5114 30.4773C39.178 31.4773 39.5455 32.6515 39.6136 34H35.0455C34.9167 33.1288 34.5758 32.428 34.0227 31.8977C33.4773 31.3598 32.7614 31.0909 31.875 31.0909C31.125 31.0909 30.4697 31.2955 29.9091 31.7045C29.3561 32.1061 28.9242 32.6932 28.6136 33.4659C28.303 34.2386 28.1477 35.1742 28.1477 36.2727C28.1477 37.3864 28.2992 38.3333 28.6023 39.1136C28.9129 39.8939 29.3485 40.4886 29.9091 40.8977C30.4697 41.3068 31.125 41.5114 31.875 41.5114C32.428 41.5114 32.9242 41.3977 33.3636 41.1705C33.8106 40.9432 34.178 40.6136 34.4659 40.1818C34.7614 39.7424 34.9545 39.2159 35.0455 38.6023H39.6136C39.5379 39.9356 39.1742 41.1098 38.5227 42.125C37.8788 43.1326 36.9886 43.9205 35.8523 44.4886C34.7159 45.0568 33.3712 45.3409 31.8182 45.3409Z" fill="#83DFF8"/>
<defs>
<filter id="filter0_d_1_89" x="0" y="0" width="76" height="76" filterUnits="userSpaceOnUse" color-interpolation-filters="sRGB">
<feFlood flood-opacity="0" result="BackgroundImageFix"/>
<feColorMatrix in="SourceAlpha" type="matrix" values="0 0 0 0 0 0 0 0 0 0 0 0 0 0 0 0 0 0 127 0" result="hardAlpha"/>
<feOffset dx="4" dy="4"/>
<feGaussianBlur stdDeviation="4"/>
<feComposite in2="hardAlpha" operator="out"/>
<feColorMatrix type="matrix" values="0 0 0 0 0 0 0 0 0 0 0 0 0 0 0 0 0 0 0.25 0"/>
<feBlend mode="normal" in2="BackgroundImageFix" result="effect1_dropShadow_1_89"/>
<feBlend mode="normal" in="SourceGraphic" in2="effect1_dropShadow_1_89" result="shape"/>
</filter>
</defs>
</svg>
