<svg width="76" height="76" viewBox="0 0 76 76" fill="none" xmlns="http://www.w3.org/2000/svg">
<g filter="url(#filter0_d_1_99)">
<circle cx="34" cy="34" r="30" fill="#377E94"/>
</g>
<path d="M24.0227 45V21.7273H33.3409C35.053 21.7273 36.4811 21.9811 37.625 22.4886C38.7689 22.9962 39.6288 23.7008 40.2045 24.6023C40.7803 25.4962 41.0682 26.5265 41.0682 27.6932C41.0682 28.6023 40.8864 29.4015 40.5227 30.0909C40.1591 30.7727 39.6591 31.3333 39.0227 31.7727C38.3939 32.2045 37.6742 32.5114 36.8636 32.6932V32.9205C37.75 32.9583 38.5795 33.2083 39.3523 33.6705C40.1326 34.1326 40.7652 34.7803 41.25 35.6136C41.7348 36.4394 41.9773 37.4242 41.9773 38.5682C41.9773 39.803 41.6705 40.9053 41.0568 41.875C40.4508 42.8371 39.553 43.5985 38.3636 44.1591C37.1742 44.7197 35.7083 45 33.9659 45H24.0227ZM28.9432 40.9773H32.9545C34.3258 40.9773 35.3258 40.7159 35.9545 40.1932C36.5833 39.6629 36.8977 38.9583 36.8977 38.0795C36.8977 37.4356 36.7424 36.8674 36.4318 36.375C36.1212 35.8826 35.678 35.4962 35.1023 35.2159C34.5341 34.9356 33.8561 34.7955 33.0682 34.7955H28.9432V40.9773ZM28.9432 31.4659H32.5909C33.2652 31.4659 33.8636 31.3485 34.3864 31.1136C34.9167 30.8712 35.3333 30.5303 35.6364 30.0909C35.947 29.6515 36.1023 29.125 36.1023 28.5114C36.1023 27.6705 35.803 26.9924 35.2045 26.4773C34.6136 25.9621 33.7727 25.7045 32.6818 25.7045H28.9432V31.4659Z" fill="#83DFF8"/>
<defs>
<filter id="filter0_d_1_99" x="0" y="0" width="76" height="76" filterUnits="userSpaceOnUse" color-interpolation-filters="sRGB">
<feFlood flood-opacity="0" result="BackgroundImageFix"/>
<feColorMatrix in="SourceAlpha" type="matrix" values="0 0 0 0 0 0 0 0 0 0 0 0 0 0 0 0 0 0 127 0" result="hardAlpha"/>
<feOffset dx="4" dy="4"/>
<feGaussianBlur stdDeviation="4"/>
<feComposite in2="hardAlpha" operator="out"/>
<feColorMatrix type="matrix" values="0 0 0 0 0 0 0 0 0 0 0 0 0 0 0 0 0 0 0.25 0"/>
<feBlend mode="normal" in2="BackgroundImageFix" result="effect1_dropShadow_1_99"/>
<feBlend mode="normal" in="SourceGraphic" in2="effect1_dropShadow_1_99" result="shape"/>
</filter>
</defs>
</svg>
