<svg width="163" height="140" viewBox="0 0 163 140" fill="none" xmlns="http://www.w3.org/2000/svg">
<path d="M38.9436 74.0765C30.7838 58.199 2.36609 56.4689 0.146998 38.7703C-1.77822 23.4156 15.5819 9.59921 30.2692 4.89271C44.5456 0.317874 58.183 16.216 73.1628 15.3727C85.6889 14.6675 94.9897 -3.42805 106.901 0.578374C118.488 4.47565 115.583 23.2595 123.745 32.3866C134.089 43.9522 154.87 45.3526 160.03 59.9838C165.134 74.4578 161.482 94.9816 148.852 103.585C135.029 113.001 114.909 94.1719 99.6806 101.092C84.9426 107.789 86.8393 136.131 70.899 139.007C56.7215 141.565 44.289 125.213 37.9033 112.238C32.1602 100.568 44.8887 85.6447 38.9436 74.0765Z" fill="#E7FF8C"/>
</svg>
