<svg width="194" height="26" viewBox="0 0 194 26" fill="none" xmlns="http://www.w3.org/2000/svg">
<path d="M10.6364 10.125V12.6136L0.534091 15.5227V13.0568L10.6364 10.125ZM2.94318 25V1.72727H7.15909V21.4659H17.4205V25H2.94318ZM25.6364 25.3523C24.5303 25.3523 23.5341 25.1553 22.6477 24.7614C21.7689 24.3598 21.072 23.7689 20.5568 22.9886C20.0492 22.2083 19.7955 21.2462 19.7955 20.1023C19.7955 19.1174 19.9773 18.303 20.3409 17.6591C20.7045 17.0152 21.2008 16.5 21.8295 16.1136C22.4583 15.7273 23.1667 15.4356 23.9545 15.2386C24.75 15.0341 25.572 14.8864 26.4205 14.7955C27.4432 14.6894 28.2727 14.5947 28.9091 14.5114C29.5455 14.4205 30.0076 14.2841 30.2955 14.1023C30.5909 13.9129 30.7386 13.6212 30.7386 13.2273V13.1591C30.7386 12.303 30.4848 11.6402 29.9773 11.1705C29.4697 10.7008 28.7386 10.4659 27.7841 10.4659C26.7765 10.4659 25.9773 10.6856 25.3864 11.125C24.803 11.5644 24.4091 12.0833 24.2045 12.6818L20.3636 12.1364C20.6667 11.0758 21.1667 10.1894 21.8636 9.47727C22.5606 8.75757 23.4129 8.2197 24.4205 7.86364C25.428 7.5 26.5417 7.31818 27.7614 7.31818C28.6023 7.31818 29.4394 7.41667 30.2727 7.61364C31.1061 7.81061 31.8674 8.13636 32.5568 8.59091C33.2462 9.03788 33.7992 9.64773 34.2159 10.4205C34.6402 11.1932 34.8523 12.1591 34.8523 13.3182V25H30.8977V22.6023H30.7614C30.5114 23.0871 30.1591 23.5417 29.7045 23.9659C29.2576 24.3826 28.6932 24.7197 28.0114 24.9773C27.3371 25.2273 26.5455 25.3523 25.6364 25.3523ZM26.7045 22.3295C27.5303 22.3295 28.2462 22.1667 28.8523 21.8409C29.4583 21.5076 29.9242 21.0682 30.25 20.5227C30.5833 19.9773 30.75 19.3826 30.75 18.7386V16.6818C30.6212 16.7879 30.4015 16.8864 30.0909 16.9773C29.7879 17.0682 29.447 17.1477 29.0682 17.2159C28.6894 17.2841 28.3144 17.3447 27.9432 17.3977C27.572 17.4508 27.25 17.4962 26.9773 17.5341C26.3636 17.6174 25.8144 17.7538 25.3295 17.9432C24.8447 18.1326 24.4621 18.3977 24.1818 18.7386C23.9015 19.072 23.7614 19.5038 23.7614 20.0341C23.7614 20.7917 24.0379 21.3636 24.5909 21.75C25.1439 22.1364 25.8485 22.3295 26.7045 22.3295ZM45.4659 25.3068C44.0947 25.3068 42.8674 24.9545 41.7841 24.25C40.7008 23.5455 39.8447 22.5227 39.2159 21.1818C38.5871 19.8409 38.2727 18.2121 38.2727 16.2955C38.2727 14.3561 38.5909 12.7197 39.2273 11.3864C39.8712 10.0455 40.7386 9.03409 41.8295 8.35227C42.9205 7.66288 44.1364 7.31818 45.4773 7.31818C46.5 7.31818 47.3409 7.49242 48 7.84091C48.6591 8.18182 49.1818 8.5947 49.5682 9.07955C49.9545 9.55682 50.2538 10.0076 50.4659 10.4318H50.6364V1.72727H54.7614V25H50.7159V22.25H50.4659C50.2538 22.6742 49.947 23.125 49.5455 23.6023C49.1439 24.072 48.6136 24.4735 47.9545 24.8068C47.2955 25.1402 46.4659 25.3068 45.4659 25.3068ZM46.6136 21.9318C47.4848 21.9318 48.2273 21.697 48.8409 21.2273C49.4545 20.75 49.9205 20.0871 50.2386 19.2386C50.5568 18.3902 50.7159 17.4015 50.7159 16.2727C50.7159 15.1439 50.5568 14.1629 50.2386 13.3295C49.928 12.4962 49.4659 11.8485 48.8523 11.3864C48.2462 10.9242 47.5 10.6932 46.6136 10.6932C45.697 10.6932 44.9318 10.9318 44.3182 11.4091C43.7045 11.8864 43.2424 12.5455 42.9318 13.3864C42.6212 14.2273 42.4659 15.1894 42.4659 16.2727C42.4659 17.3636 42.6212 18.3371 42.9318 19.1932C43.25 20.0417 43.7159 20.7121 44.3295 21.2045C44.9508 21.6894 45.7121 21.9318 46.6136 21.9318ZM66.7585 25.3409C65.054 25.3409 63.5767 24.9659 62.3267 24.2159C61.0767 23.4659 60.107 22.4167 59.4176 21.0682C58.7358 19.7197 58.3949 18.1439 58.3949 16.3409C58.3949 14.5379 58.7358 12.9583 59.4176 11.6023C60.107 10.2462 61.0767 9.19318 62.3267 8.44318C63.5767 7.69318 65.054 7.31818 66.7585 7.31818C68.4631 7.31818 69.9403 7.69318 71.1903 8.44318C72.4403 9.19318 73.4063 10.2462 74.0881 11.6023C74.7775 12.9583 75.1222 14.5379 75.1222 16.3409C75.1222 18.1439 74.7775 19.7197 74.0881 21.0682C73.4063 22.4167 72.4403 23.4659 71.1903 24.2159C69.9403 24.9659 68.4631 25.3409 66.7585 25.3409ZM66.7812 22.0455C67.7055 22.0455 68.4782 21.7917 69.0994 21.2841C69.7206 20.7689 70.1828 20.0795 70.4858 19.2159C70.7964 18.3523 70.9517 17.3902 70.9517 16.3295C70.9517 15.2614 70.7964 14.2955 70.4858 13.4318C70.1828 12.5606 69.7206 11.8674 69.0994 11.3523C68.4782 10.8371 67.7055 10.5795 66.7812 10.5795C65.8343 10.5795 65.0464 10.8371 64.4176 11.3523C63.7964 11.8674 63.3305 12.5606 63.0199 13.4318C62.7169 14.2955 62.5653 15.2614 62.5653 16.3295C62.5653 17.3902 62.7169 18.3523 63.0199 19.2159C63.3305 20.0795 63.7964 20.7689 64.4176 21.2841C65.0464 21.7917 65.8343 22.0455 66.7812 22.0455ZM81.7159 25L76.7841 7.54545H80.9773L84.0455 19.8182H84.2045L87.3409 7.54545H91.4886L94.625 19.75H94.7955L97.8182 7.54545H102.023L97.0795 25H92.7955L89.5227 13.2045H89.2841L86.0114 25H81.7159ZM109.918 25.3523C108.812 25.3523 107.815 25.1553 106.929 24.7614C106.05 24.3598 105.353 23.7689 104.838 22.9886C104.33 22.2083 104.077 21.2462 104.077 20.1023C104.077 19.1174 104.259 18.303 104.622 17.6591C104.986 17.0152 105.482 16.5 106.111 16.1136C106.74 15.7273 107.448 15.4356 108.236 15.2386C109.031 15.0341 109.853 14.8864 110.702 14.7955C111.724 14.6894 112.554 14.5947 113.19 14.5114C113.827 14.4205 114.289 14.2841 114.577 14.1023C114.872 13.9129 115.02 13.6212 115.02 13.2273V13.1591C115.02 12.303 114.766 11.6402 114.259 11.1705C113.751 10.7008 113.02 10.4659 112.065 10.4659C111.058 10.4659 110.259 10.6856 109.668 11.125C109.084 11.5644 108.69 12.0833 108.486 12.6818L104.645 12.1364C104.948 11.0758 105.448 10.1894 106.145 9.47727C106.842 8.75757 107.694 8.2197 108.702 7.86364C109.709 7.5 110.823 7.31818 112.043 7.31818C112.884 7.31818 113.721 7.41667 114.554 7.61364C115.387 7.81061 116.149 8.13636 116.838 8.59091C117.527 9.03788 118.08 9.64773 118.497 10.4205C118.921 11.1932 119.134 12.1591 119.134 13.3182V25H115.179V22.6023H115.043C114.793 23.0871 114.44 23.5417 113.986 23.9659C113.539 24.3826 112.974 24.7197 112.293 24.9773C111.618 25.2273 110.827 25.3523 109.918 25.3523ZM110.986 22.3295C111.812 22.3295 112.527 22.1667 113.134 21.8409C113.74 21.5076 114.205 21.0682 114.531 20.5227C114.865 19.9773 115.031 19.3826 115.031 18.7386V16.6818C114.902 16.7879 114.683 16.8864 114.372 16.9773C114.069 17.0682 113.728 17.1477 113.349 17.2159C112.971 17.2841 112.596 17.3447 112.224 17.3977C111.853 17.4508 111.531 17.4962 111.259 17.5341C110.645 17.6174 110.096 17.7538 109.611 17.9432C109.126 18.1326 108.743 18.3977 108.463 18.7386C108.183 19.072 108.043 19.5038 108.043 20.0341C108.043 20.7917 108.319 21.3636 108.872 21.75C109.425 22.1364 110.13 22.3295 110.986 22.3295ZM127.384 14.7727V25H123.27V7.54545H127.202V10.5114H127.406C127.808 9.53409 128.448 8.75758 129.327 8.18182C130.213 7.60606 131.308 7.31818 132.611 7.31818C133.815 7.31818 134.865 7.57576 135.759 8.09091C136.66 8.60606 137.357 9.35227 137.849 10.3295C138.349 11.3068 138.596 12.4924 138.588 13.8864V25H134.474V14.5227C134.474 13.3561 134.171 12.4432 133.565 11.7841C132.967 11.125 132.137 10.7955 131.077 10.7955C130.357 10.7955 129.717 10.9545 129.156 11.2727C128.603 11.5833 128.168 12.0341 127.849 12.625C127.539 13.2159 127.384 13.9318 127.384 14.7727ZM142.77 25V7.54545H146.884V25H142.77ZM144.838 5.06818C144.187 5.06818 143.626 4.85227 143.156 4.42045C142.687 3.98106 142.452 3.45454 142.452 2.84091C142.452 2.2197 142.687 1.69318 143.156 1.26136C143.626 0.821969 144.187 0.602272 144.838 0.602272C145.497 0.602272 146.058 0.821969 146.52 1.26136C146.99 1.69318 147.224 2.2197 147.224 2.84091C147.224 3.45454 146.99 3.98106 146.52 4.42045C146.058 4.85227 145.497 5.06818 144.838 5.06818ZM158.841 25.3409C157.091 25.3409 155.58 24.9773 154.307 24.25C153.042 23.5152 152.068 22.4773 151.386 21.1364C150.705 19.7879 150.364 18.2008 150.364 16.375C150.364 14.5795 150.705 13.0038 151.386 11.6477C152.076 10.2841 153.038 9.22348 154.273 8.46591C155.508 7.70076 156.958 7.31818 158.625 7.31818C159.701 7.31818 160.716 7.49242 161.67 7.84091C162.633 8.18182 163.481 8.71212 164.216 9.43182C164.958 10.1515 165.542 11.0682 165.966 12.1818C166.39 13.2879 166.602 14.6061 166.602 16.1364V17.3977H152.295V14.625H162.659C162.652 13.8371 162.481 13.1364 162.148 12.5227C161.814 11.9015 161.348 11.4129 160.75 11.0568C160.159 10.7008 159.47 10.5227 158.682 10.5227C157.841 10.5227 157.102 10.7273 156.466 11.1364C155.83 11.5379 155.333 12.0682 154.977 12.7273C154.629 13.3788 154.451 14.0947 154.443 14.875V17.2955C154.443 18.3106 154.629 19.1818 155 19.9091C155.371 20.6288 155.89 21.1818 156.557 21.5682C157.223 21.947 158.004 22.1364 158.898 22.1364C159.496 22.1364 160.038 22.053 160.523 21.8864C161.008 21.7121 161.428 21.4583 161.784 21.125C162.14 20.7917 162.409 20.3788 162.591 19.8864L166.432 20.3182C166.189 21.3333 165.727 22.2197 165.045 22.9773C164.371 23.7273 163.508 24.3106 162.455 24.7273C161.402 25.1364 160.197 25.3409 158.841 25.3409ZM172.616 25.25C171.927 25.25 171.336 25.0076 170.844 24.5227C170.351 24.0379 170.109 23.447 170.116 22.75C170.109 22.0682 170.351 21.4848 170.844 21C171.336 20.5152 171.927 20.2727 172.616 20.2727C173.283 20.2727 173.863 20.5152 174.355 21C174.855 21.4848 175.109 22.0682 175.116 22.75C175.109 23.2121 174.988 23.6326 174.753 24.0114C174.526 24.3902 174.223 24.6932 173.844 24.9205C173.473 25.1402 173.063 25.25 172.616 25.25ZM181.898 25.25C181.208 25.25 180.617 25.0076 180.125 24.5227C179.633 24.0379 179.39 23.447 179.398 22.75C179.39 22.0682 179.633 21.4848 180.125 21C180.617 20.5152 181.208 20.2727 181.898 20.2727C182.564 20.2727 183.144 20.5152 183.636 21C184.136 21.4848 184.39 22.0682 184.398 22.75C184.39 23.2121 184.269 23.6326 184.034 24.0114C183.807 24.3902 183.504 24.6932 183.125 24.9205C182.754 25.1402 182.345 25.25 181.898 25.25ZM191.179 25.25C190.49 25.25 189.899 25.0076 189.406 24.5227C188.914 24.0379 188.671 23.447 188.679 22.75C188.671 22.0682 188.914 21.4848 189.406 21C189.899 20.5152 190.49 20.2727 191.179 20.2727C191.846 20.2727 192.425 20.5152 192.918 21C193.418 21.4848 193.671 22.0682 193.679 22.75C193.671 23.2121 193.55 23.6326 193.315 24.0114C193.088 24.3902 192.785 24.6932 192.406 24.9205C192.035 25.1402 191.626 25.25 191.179 25.25Z" fill="#EFEFEF"/>
</svg>
